<svg xmlns="http://www.w3.org/2000/svg" width="11.124" height="30.73" viewBox="0 0 11.124 30.73"><g transform="translate(-144.047)"><g transform="translate(144.047)"><g transform="translate(0)"><path d="M155.167,20.387a2.311,2.311,0,0,0-.68-1.684,2.4,2.4,0,0,0-.077-3.428,2.569,2.569,0,0,0,.738-1.864V8.927l-3.573-5.62h.785V0h-5.526V3.308h.835l-3.622,5.62v4.483a2.586,2.586,0,0,0,.762,1.864,2.286,2.286,0,0,0-.744,1.744,2.315,2.315,0,0,0,.686,1.684,2.312,2.312,0,0,0-.681,1.684,2.283,2.283,0,0,0,.738,1.744A2.585,2.585,0,0,0,144.047,24v3.849a2.251,2.251,0,0,0,1.991,2.405h1.991v-.04a1.784,1.784,0,0,0,1.195.521h.8a1.783,1.783,0,0,0,1.195-.521v.04h1.991a2.215,2.215,0,0,0,1.941-2.405V24a2.569,2.569,0,0,0-.737-1.864A2.3,2.3,0,0,0,155.167,20.387ZM147.581,2.405V.9h4.032v1.5Zm1.03.9h2.022l3.408,5.352H145.2Zm4.794,15.876a1.255,1.255,0,0,1,0,2.466h-1v.9h.8a1.319,1.319,0,0,1,1.195,1.443v3.849a1.378,1.378,0,0,1-1.195,1.5h-1.4a3.211,3.211,0,0,0,.18-1.022h-.747a1.4,1.4,0,0,1-1.22,1.5h-.8a1.4,1.4,0,0,1-1.22-1.5h-.747a3.21,3.21,0,0,0,.18,1.022h-1.4a1.415,1.415,0,0,1-1.245-1.5V23.995a1.355,1.355,0,0,1,1.245-1.443h3.982v-.9h-4.182a1.255,1.255,0,0,1,0-2.466h4.182v-.9h-4.182a1.143,1.143,0,0,1-1.02-1.233,1.143,1.143,0,0,1,1.02-1.233h4.182v-.9h-3.982a1.415,1.415,0,0,1-1.245-1.5V9.562H154.4v3.849a1.378,1.378,0,0,1-1.195,1.5h-.8v.9h1a1.143,1.143,0,0,1,1.021,1.233,1.143,1.143,0,0,1-1.021,1.233h-1v.9Z" transform="translate(-144.047)"/></g></g><g transform="translate(146.686 6.654)"><g transform="translate(0)"><rect width="1.346" height="1.262"/></g></g><g transform="translate(147.441 5.704)"><g transform="translate(0)"><rect width="1.346" height="1.262"/></g></g><g transform="translate(150.457 18.061)"><g transform="translate(0)"><rect width="1.346" height="1.262"/></g></g><g transform="translate(150.457 14.734)"><g transform="translate(0)"><rect width="1.346" height="1.262"/></g></g><g transform="translate(150.457 21.388)"><g transform="translate(0)"><rect width="1.346" height="1.262"/></g></g></g></svg>